<svg width="158" height="29" viewBox="0 0 158 29" fill="none" xmlns="http://www.w3.org/2000/svg">
<path d="M28.9046 0.610383C22.1992 -1.61092 15.0273 2.37458 14.8015 10.2245C12.3846 12.3555 10.9772 13.3718 8.46341 14.8592C5.1028 16.9034 4.44957 17.3063 2.01628 19.5835C-1.13605 22.5336 -0.416022 27.4678 2.95321 28.4743H15.9799C15.8942 27.93 15.4893 27.4678 14.9044 27.4678H3.17741C0.254007 26.577 0.525639 22.0212 3.98223 19.2742V26.577H11.2467C11.0255 26.1609 10.5188 25.6805 9.82974 25.6805H8.46341C9.71133 24.8462 10.2898 24.3135 10.9274 23.1591C11.223 22.6238 11.6231 21.3767 11.9253 20.152L11.9836 21.0196C15.1946 20.8098 16.844 20.4106 19.4831 19.1032L17.9844 16.5532H18.8624L26.2717 28.4743H30.7011C30.6532 28.1576 30.3191 27.3423 29.4005 27.3423H27.7587C27.1462 25.3857 26.9306 24.1392 26.5465 21.919L26.546 21.9159C26.5268 21.8051 26.5072 21.6919 26.4872 21.576C25.7815 17.7922 24.6842 16.1274 22.1992 13.5017C13.7411 5.5039 21.3154 -0.755288 28.9046 0.610383Z" fill="white"/>
<path d="M23.7411 6.37395C22.4929 3.31802 24.5221 0.703091 29.374 1.10237C26.3003 0.294783 22.4993 1.12353 20.9282 3.45615C19.1562 6.08712 19.6824 8.18541 21.0897 10.1471C21.8334 11.1838 22.7892 12.1605 23.6389 13.0288C24.2425 13.6456 24.7926 14.2077 25.1751 14.6978C26.9462 16.9668 27.272 18.4587 27.3067 20.7653C28.5223 18.9509 29.0524 17.9562 29.2966 16.8908C29.8608 13.7296 28.9194 11.9819 26.2187 9.54452C24.9787 8.50114 24.4013 7.83187 23.7411 6.37395Z" fill="white"/>
<path fill-rule="evenodd" clip-rule="evenodd" d="M33.4732 3.47038C32.7359 3.16911 32.3917 2.98464 31.7164 2.62247C31.3416 2.42148 30.865 2.16575 30.162 1.80494C28.8578 1.09453 27.2512 1.89444 26.8218 2.21196C25.5976 1.22065 24.527 2.51013 24.9299 3.47038C24.3693 4.23172 24.0397 6.39601 27.2058 8.96225C30.3719 11.5285 30.8081 14.729 30.6302 16.0085C30.8054 15.4241 31.12 13.9103 30.977 12.5301C30.8467 11.2671 30.3502 10.4707 29.9471 9.82336C29.7992 9.58642 29.6641 9.36944 29.5638 9.15686C29.2646 8.52218 29.3805 8.00946 29.4759 7.83246C29.5795 7.59317 29.9046 7.09157 30.3779 6.9995C30.8509 6.90746 31.4729 7.07076 31.7246 7.16391C32.5489 7.42695 33.0207 7.2041 33.1531 7.0598C33.2808 6.96096 33.5355 6.64282 33.5355 6.16087C33.5355 5.71415 33.4386 5.80932 33.3684 5.87784C33.363 5.88323 33.3576 5.88847 33.3524 5.89326C33.3419 5.90313 33.3293 5.9159 33.3142 5.93116C33.2368 6.00917 33.0947 6.15257 32.8397 6.30909C32.5347 6.49623 32.2313 6.27531 32.1271 6.11933C32.1753 6.14859 32.3589 6.17972 32.6489 6.07209C32.9388 5.96446 33.3711 5.56428 33.5355 5.38882C33.5484 5.18894 33.5623 5.02648 33.5734 4.89428C33.6059 4.51277 33.6171 4.38331 33.521 4.33379C32.9412 4.03431 32.9508 3.90142 33.0571 3.89362C34.0871 3.78599 33.7667 3.57762 33.4732 3.47038ZM30.8105 3.17847C30.6191 2.95026 30.2003 2.49781 29.8194 2.7441C29.5184 2.93872 29.1547 2.94689 28.872 2.95324C28.8166 2.95449 28.7642 2.95567 28.716 2.95817C28.8208 2.9561 29.0722 2.97627 29.2748 3.19156C29.3371 3.25437 29.4934 3.31058 29.8194 3.12693C30.035 3.00554 30.5453 3.08812 30.8105 3.17847ZM28.6669 2.96137C28.6669 2.96137 28.685 2.95878 28.716 2.95817C28.6991 2.95905 28.6826 2.9601 28.6669 2.96137ZM26.3667 2.47271C26.1459 2.56605 25.7128 2.86302 25.4298 3.1399C25.2662 2.93966 25.2833 2.65767 25.47 2.47599L25.5433 2.40466C25.778 2.17619 26.1783 2.20927 26.3667 2.47271Z" fill="white"/>
<path d="M45.762 23.9271V23.2602C47.9805 23.2087 48.227 22.953 48.227 20.5946V8.08617C48.227 5.72779 47.9531 5.44541 45.762 5.42057V4.75372H54.0062C57.1286 4.75372 59.5662 5.21546 61.1822 6.16378C63.8937 7.7017 65.181 10.2137 65.181 14.0327C65.181 18.1847 63.7568 21.1069 60.9631 22.5685C59.2649 23.4911 56.8821 23.9271 53.6775 23.9271H45.762ZM51.7876 23.1839H53.7323C56.0877 23.1839 58.0598 22.5427 59.1827 21.4151C60.607 20.0308 61.3465 17.6209 61.3465 14.4687C61.3465 11.598 60.7713 9.47048 59.5936 7.88105C58.4158 6.29163 56.3342 5.49692 53.431 5.49692H51.7876V23.1839Z" fill="white"/>
<path d="M67.8594 23.9271V23.2602C70.0779 23.2087 70.3245 22.953 70.3245 20.5946V8.08617C70.3245 5.72779 70.0505 5.44541 67.8594 5.42057V4.75372H82.8962L83.3892 10.2137L82.4306 10.2394C81.8553 6.67611 80.4037 5.49692 76.5418 5.49692H73.8577V13.5461H75.8297C78.7878 13.5461 79.4999 13.0071 79.8011 10.5982H80.6776V17.2879H79.8011C79.4725 14.8017 78.7878 14.2893 75.8297 14.2893H73.8577V23.1839H76.8705C80.568 23.1839 82.1018 21.8501 82.8962 17.8517L83.8 17.9548L83.2248 23.9271H67.8594Z" fill="white"/>
<path d="M97.2536 13.4174L101.855 20.2101C103.334 22.4149 104.128 23.0293 105.772 23.2602V23.9271H96.925V23.2602C98.3766 23.2087 98.8422 22.9787 98.8422 22.3891C98.8422 22.3634 98.8422 22.3376 98.8422 22.3119C98.8148 21.9274 98.4862 21.2357 97.7741 20.1844L94.6791 15.5964L91.6663 19.7741C90.9542 20.7482 90.598 21.4914 90.598 22.0553C90.598 22.8242 91.1733 23.1323 92.8987 23.2602V23.9271H85.6406V23.2602C87.2018 23.1323 88.6808 22.0553 90.2694 19.9029L94.0765 14.6738L89.8038 8.39339C88.2426 6.08651 87.5852 5.57418 85.9967 5.42057V4.75372H94.816V5.42057C93.3917 5.47116 92.844 5.70204 92.844 6.26588C92.844 6.65036 93.2275 7.41931 93.9943 8.57275L96.6785 12.5969L99.4174 8.77786C100.047 7.90681 100.458 6.98425 100.458 6.49675C100.458 5.80506 99.9378 5.52267 98.2945 5.42057V4.75372H105.525V5.42057C103.663 5.57418 102.266 6.57401 100.458 9.06024L97.2536 13.4174Z" fill="white"/>
<path d="M112.346 17.4402L111.579 19.3883C111.168 20.3624 110.976 21.1571 110.976 21.7467C110.976 22.7465 111.743 23.2074 113.551 23.2589V23.9257H106.512V23.2589C108.292 23.2331 109.278 22.2342 110.511 19.209L116.345 4.75239L118.371 4.54727L124.342 20.2603C124.972 21.8488 125.493 22.6693 126.123 22.9774C126.424 23.1053 126.671 23.1568 127.574 23.2589V23.9257H118.645V23.2589C120.371 23.2074 121.001 22.8744 121.001 22.0291C121.001 22.0033 121.001 21.9776 121.001 21.9518C120.974 21.5416 120.837 20.9005 120.59 20.2603L119.549 17.4402H112.346ZM119.193 16.4413L116.071 8.1106L112.729 16.4413H119.193Z" fill="white"/>
<path d="M134.971 14.8789V20.6204C134.971 22.953 135.19 23.1838 137.436 23.2602V23.9271H128.945V23.2602C131.191 23.1838 131.41 22.953 131.41 20.6204V8.08617C131.41 5.75354 131.191 5.52267 129.055 5.42057V4.75372H137.436C139.737 4.75372 141.654 5.03609 142.749 5.52267C144.475 6.29163 145.269 7.52233 145.269 9.41897C145.269 12.5206 143.215 14.1348 138.888 14.4429V14.6481C140.312 14.8017 141.298 15.2119 142.284 16.0066C143.188 16.7241 143.653 17.5188 144.968 20.3895C146.036 22.7221 146.502 23.2087 147.789 23.3117V23.9271H142.393C141.106 20.338 140.339 18.4413 139.545 17.0064C138.668 15.417 137.819 14.8789 136.066 14.8789H134.971ZM134.971 14.1348H136.45C139.709 14.1348 141.462 12.5969 141.462 9.72618C141.462 6.85547 139.901 5.49692 136.642 5.49692H134.971V14.1348Z" fill="white"/>
<path d="M149.201 23.9271V23.2602C151.584 23.1838 151.803 22.953 151.803 20.5946V8.08617C151.803 5.75354 151.584 5.49692 149.31 5.42057V4.75372H157.856V5.42057C155.583 5.49692 155.364 5.75354 155.364 8.08617V20.5946C155.364 22.953 155.61 23.1838 157.966 23.2602V23.9271H149.201Z" fill="white"/>
</svg>
